<mxfile host="app.diagrams.net" agent="Mozilla/5.0 (Windows NT 10.0; Win64; x64) AppleWebKit/537.36 (KHTML, like Gecko) Chrome/138.0.0.0 Safari/537.36" version="28.0.7" pages="3">
  <diagram id="tipJ9j7XsnqY5xg1MK7z" name="Org chart from CSV">
    <mxGraphModel dx="786" dy="498" grid="1" gridSize="10" guides="1" tooltips="1" connect="1" arrows="1" fold="1" page="1" pageScale="1" pageWidth="1169" pageHeight="827" math="0" shadow="0">
      <root>
        <mxCell id="0" />
        <mxCell id="1" parent="0" />
        <UserObject label="%name%&lt;br&gt;&lt;i style=&quot;color: gray&quot;&gt;%position%&lt;/i&gt;&lt;br&gt;&lt;a href=&quot;mailto:%email%&quot;&gt;Email&lt;/a&gt;" name="Tessa Miller" position="CFO" location="Office 1" email="me@example.com" placeholders="1" link="https://www.draw.io" id="CSa9h09VVqo2uVwTtSnd-1">
          <mxCell style="label;image=https://cdn3.iconfinder.com/data/icons/user-avatars-1/512/users-3-128.png;whiteSpace=wrap;html=1;rounded=1;fillColor=#dae8fc;strokeColor=#6c8ebf;" parent="1" vertex="1">
            <mxGeometry x="139" y="20" width="168" height="78" as="geometry" />
          </mxCell>
        </UserObject>
        <UserObject label="%name%&lt;br&gt;&lt;i style=&quot;color: gray&quot;&gt;%position%&lt;/i&gt;&lt;br&gt;&lt;a href=&quot;mailto:%email%&quot;&gt;Email&lt;/a&gt;" name="Edward Morrison" position="Brand Manager" location="Office 2" email="me@example.com" placeholders="1" link="https://www.draw.io" id="CSa9h09VVqo2uVwTtSnd-2">
          <mxCell style="label;image=https://cdn3.iconfinder.com/data/icons/user-avatars-1/512/users-10-3-128.png;whiteSpace=wrap;html=1;rounded=1;fillColor=#d5e8d4;strokeColor=#82b366;" parent="1" vertex="1">
            <mxGeometry x="20" y="376" width="198" height="78" as="geometry" />
          </mxCell>
        </UserObject>
        <UserObject label="%name%&lt;br&gt;&lt;i style=&quot;color: gray&quot;&gt;%position%&lt;/i&gt;&lt;br&gt;&lt;a href=&quot;mailto:%email%&quot;&gt;Email&lt;/a&gt;" name="Alison Donovan" position="System Admin" location="Office 3" email="me@example.com" placeholders="1" link="https://www.draw.io" id="CSa9h09VVqo2uVwTtSnd-3">
          <mxCell style="label;image=https://cdn3.iconfinder.com/data/icons/user-avatars-1/512/users-2-128.png;whiteSpace=wrap;html=1;rounded=1;fillColor=#d5e8d4;strokeColor=#82b366;" parent="1" vertex="1">
            <mxGeometry x="129" y="198" width="188" height="78" as="geometry" />
          </mxCell>
        </UserObject>
        <UserObject label="%name%&lt;br&gt;&lt;i style=&quot;color: gray&quot;&gt;%position%&lt;/i&gt;&lt;br&gt;&lt;a href=&quot;mailto:%email%&quot;&gt;Email&lt;/a&gt;" name="Evan Valet" position="HR Director" location="Office 4" email="me@example.com" placeholders="1" link="https://www.draw.io" id="CSa9h09VVqo2uVwTtSnd-4">
          <mxCell style="label;image=https://cdn3.iconfinder.com/data/icons/user-avatars-1/512/users-9-2-128.png;whiteSpace=wrap;html=1;rounded=1;fillColor=#d5e8d4;strokeColor=#82b366;" parent="1" vertex="1">
            <mxGeometry x="258" y="376" width="168" height="78" as="geometry" />
          </mxCell>
        </UserObject>
        <mxCell id="CSa9h09VVqo2uVwTtSnd-5" value="manages" style="curved=1;endArrow=blockThin;endFill=1;fontSize=11;" parent="1" source="CSa9h09VVqo2uVwTtSnd-1" target="CSa9h09VVqo2uVwTtSnd-2" edge="1">
          <mxGeometry relative="1" as="geometry">
            <Array as="points">
              <mxPoint x="170.33333333333334" y="110" />
              <mxPoint x="89" y="148" />
              <mxPoint x="89" y="326" />
              <mxPoint x="72" y="364" />
            </Array>
          </mxGeometry>
        </mxCell>
        <mxCell id="CSa9h09VVqo2uVwTtSnd-6" value="manages" style="curved=1;endArrow=blockThin;endFill=1;fontSize=11;" parent="1" source="CSa9h09VVqo2uVwTtSnd-1" target="CSa9h09VVqo2uVwTtSnd-3" edge="1">
          <mxGeometry relative="1" as="geometry">
            <Array as="points">
              <mxPoint x="223" y="112" />
              <mxPoint x="223" y="186" />
            </Array>
          </mxGeometry>
        </mxCell>
        <mxCell id="CSa9h09VVqo2uVwTtSnd-7" value="manages" style="curved=1;endArrow=blockThin;endFill=1;fontSize=11;" parent="1" source="CSa9h09VVqo2uVwTtSnd-1" target="CSa9h09VVqo2uVwTtSnd-4" edge="1">
          <mxGeometry relative="1" as="geometry">
            <Array as="points">
              <mxPoint x="275.66666666666663" y="110" />
              <mxPoint x="357" y="148" />
              <mxPoint x="357" y="326" />
              <mxPoint x="381.5" y="364" />
            </Array>
          </mxGeometry>
        </mxCell>
        <mxCell id="CSa9h09VVqo2uVwTtSnd-8" value="" style="curved=1;fontSize=11;" parent="1" source="CSa9h09VVqo2uVwTtSnd-3" target="CSa9h09VVqo2uVwTtSnd-2" edge="1">
          <mxGeometry relative="1" as="geometry">
            <Array as="points">
              <mxPoint x="178.5" y="288" />
              <mxPoint x="166" y="364" />
            </Array>
          </mxGeometry>
        </mxCell>
        <mxCell id="CSa9h09VVqo2uVwTtSnd-9" value="" style="curved=1;fontSize=11;" parent="1" source="CSa9h09VVqo2uVwTtSnd-3" target="CSa9h09VVqo2uVwTtSnd-4" edge="1">
          <mxGeometry relative="1" as="geometry">
            <Array as="points">
              <mxPoint x="267.5" y="288" />
              <mxPoint x="302.5" y="364" />
            </Array>
          </mxGeometry>
        </mxCell>
        <mxCell id="0b-ab0YZ2GHnS2KQMua8-3" style="edgeStyle=orthogonalEdgeStyle;rounded=0;orthogonalLoop=1;jettySize=auto;html=1;exitX=0.5;exitY=1;exitDx=0;exitDy=0;" edge="1" parent="1" source="BlhhLoImCPvRDjzV4PH8-1" target="BlhhLoImCPvRDjzV4PH8-3">
          <mxGeometry relative="1" as="geometry" />
        </mxCell>
        <mxCell id="0b-ab0YZ2GHnS2KQMua8-4" style="edgeStyle=orthogonalEdgeStyle;rounded=0;orthogonalLoop=1;jettySize=auto;html=1;exitX=0.5;exitY=1;exitDx=0;exitDy=0;entryX=0.5;entryY=0;entryDx=0;entryDy=0;" edge="1" parent="1" source="BlhhLoImCPvRDjzV4PH8-1" target="BlhhLoImCPvRDjzV4PH8-2">
          <mxGeometry relative="1" as="geometry" />
        </mxCell>
        <mxCell id="BlhhLoImCPvRDjzV4PH8-1" value="A" style="whiteSpace=wrap;strokeWidth=2;" vertex="1" parent="1">
          <mxGeometry x="681" y="112" width="69" height="54" as="geometry" />
        </mxCell>
        <mxCell id="0b-ab0YZ2GHnS2KQMua8-5" style="edgeStyle=orthogonalEdgeStyle;rounded=0;orthogonalLoop=1;jettySize=auto;html=1;exitX=0.5;exitY=1;exitDx=0;exitDy=0;entryX=0;entryY=0.5;entryDx=0;entryDy=0;" edge="1" parent="1" source="BlhhLoImCPvRDjzV4PH8-2" target="BlhhLoImCPvRDjzV4PH8-4">
          <mxGeometry relative="1" as="geometry" />
        </mxCell>
        <mxCell id="BlhhLoImCPvRDjzV4PH8-2" value="B" style="whiteSpace=wrap;strokeWidth=2;" vertex="1" parent="1">
          <mxGeometry x="523" y="232" width="69" height="54" as="geometry" />
        </mxCell>
        <mxCell id="0b-ab0YZ2GHnS2KQMua8-6" style="edgeStyle=orthogonalEdgeStyle;rounded=0;orthogonalLoop=1;jettySize=auto;html=1;exitX=0.5;exitY=1;exitDx=0;exitDy=0;entryX=1;entryY=0.5;entryDx=0;entryDy=0;" edge="1" parent="1" source="BlhhLoImCPvRDjzV4PH8-3" target="BlhhLoImCPvRDjzV4PH8-4">
          <mxGeometry relative="1" as="geometry" />
        </mxCell>
        <mxCell id="BlhhLoImCPvRDjzV4PH8-3" value="C" style="whiteSpace=wrap;strokeWidth=2;" vertex="1" parent="1">
          <mxGeometry x="845" y="232" width="70" height="54" as="geometry" />
        </mxCell>
        <mxCell id="BlhhLoImCPvRDjzV4PH8-4" value="D" style="whiteSpace=wrap;strokeWidth=2;" vertex="1" parent="1">
          <mxGeometry x="685" y="352" width="70" height="54" as="geometry" />
        </mxCell>
      </root>
    </mxGraphModel>
  </diagram>
  <diagram id="L19RUOh4tl0ZsyEDIf47" name="Topology from CSV">
    <mxGraphModel dx="1233" dy="984" grid="1" gridSize="10" guides="1" tooltips="1" connect="1" arrows="1" fold="1" page="1" pageScale="1" pageWidth="1169" pageHeight="827" math="0" shadow="0">
      <root>
        <mxCell id="SlCf64y7CMVoOhODyJ3c-0" />
        <mxCell id="SlCf64y7CMVoOhODyJ3c-1" parent="SlCf64y7CMVoOhODyJ3c-0" />
        <UserObject label="%host%" host="J2EE application server" placeholders="1" id="AMjJuXL9YxaANUj2ZWoj-0">
          <mxCell style="fontColor=#232F3E;fillColor=#232F3E;verticalLabelPosition=bottom;verticalAlign=top;align=center;html=1;shape=mxgraph.aws4.traditional_server;perimeter=none;strokeColor=#232F3E;aspect=fixed;whiteSpace=wrap;" vertex="1" parent="SlCf64y7CMVoOhODyJ3c-1">
            <mxGeometry x="93.0864197530864" y="20" width="140" height="20" as="geometry" />
          </mxCell>
        </UserObject>
        <UserObject label="%host%" host="Node (extranet)" placeholders="1" id="AMjJuXL9YxaANUj2ZWoj-1">
          <mxCell style="fontColor=#232F3E;gradientColor=#505863;fillColor=#1E262E;strokeColor=#ffffff;dashed=0;verticalLabelPosition=bottom;verticalAlign=top;align=center;html=1;fontSize=12;fontStyle=0;aspect=fixed;shape=mxgraph.aws4.resourceIcon;resIcon=mxgraph.aws4.general;" vertex="1" parent="SlCf64y7CMVoOhODyJ3c-1">
            <mxGeometry x="398.75" y="20" width="100" height="20" as="geometry" />
          </mxCell>
        </UserObject>
        <UserObject label="%host%" host="Firewall 1" placeholders="1" id="AMjJuXL9YxaANUj2ZWoj-2">
          <mxCell style="fontColor=#232F3E;fillColor=#232F3E;verticalLabelPosition=bottom;verticalAlign=top;align=center;html=1;shape=mxgraph.aws4.generic_firewall;perimeter=none;strokeColor=#232F3E;aspect=fixed;whiteSpace=wrap;" vertex="1" parent="SlCf64y7CMVoOhODyJ3c-1">
            <mxGeometry x="128.0864197530864" y="91" width="70" height="20" as="geometry" />
          </mxCell>
        </UserObject>
        <UserObject label="%host%" host="Firewall 2" placeholders="1" id="AMjJuXL9YxaANUj2ZWoj-3">
          <mxCell style="fontColor=#232F3E;fillColor=#232F3E;verticalLabelPosition=bottom;verticalAlign=top;align=center;html=1;shape=mxgraph.aws4.generic_firewall;perimeter=none;strokeColor=#232F3E;aspect=fixed;whiteSpace=wrap;" vertex="1" parent="SlCf64y7CMVoOhODyJ3c-1">
            <mxGeometry x="413.75" y="91" width="70" height="20" as="geometry" />
          </mxCell>
        </UserObject>
        <UserObject label="%host%" host="Node (Warehouse)" placeholders="1" id="AMjJuXL9YxaANUj2ZWoj-4">
          <mxCell style="fontColor=#232F3E;gradientColor=#505863;fillColor=#1E262E;strokeColor=#ffffff;dashed=0;verticalLabelPosition=bottom;verticalAlign=top;align=center;html=1;fontSize=12;fontStyle=0;aspect=fixed;shape=mxgraph.aws4.resourceIcon;resIcon=mxgraph.aws4.general;" vertex="1" parent="SlCf64y7CMVoOhODyJ3c-1">
            <mxGeometry x="35" y="162" width="120" height="20" as="geometry" />
          </mxCell>
        </UserObject>
        <UserObject label="%host%" host="Node (ITS)" placeholders="1" id="AMjJuXL9YxaANUj2ZWoj-5">
          <mxCell style="fontColor=#232F3E;gradientColor=#505863;fillColor=#1E262E;strokeColor=#ffffff;dashed=0;verticalLabelPosition=bottom;verticalAlign=top;align=center;html=1;fontSize=12;fontStyle=0;aspect=fixed;shape=mxgraph.aws4.resourceIcon;resIcon=mxgraph.aws4.general;" vertex="1" parent="SlCf64y7CMVoOhODyJ3c-1">
            <mxGeometry x="195" y="162" width="70" height="20" as="geometry" />
          </mxCell>
        </UserObject>
        <UserObject label="%host%" host="Node (PR)" placeholders="1" id="AMjJuXL9YxaANUj2ZWoj-6">
          <mxCell style="fontColor=#232F3E;gradientColor=#505863;fillColor=#1E262E;strokeColor=#ffffff;dashed=0;verticalLabelPosition=bottom;verticalAlign=top;align=center;html=1;fontSize=12;fontStyle=0;aspect=fixed;shape=mxgraph.aws4.resourceIcon;resIcon=mxgraph.aws4.general;" vertex="1" parent="SlCf64y7CMVoOhODyJ3c-1">
            <mxGeometry x="415" y="162" width="70" height="20" as="geometry" />
          </mxCell>
        </UserObject>
        <UserObject label="%host%" host="Node (HR)" placeholders="1" id="AMjJuXL9YxaANUj2ZWoj-7">
          <mxCell style="fontColor=#232F3E;gradientColor=#505863;fillColor=#1E262E;strokeColor=#ffffff;dashed=0;verticalLabelPosition=bottom;verticalAlign=top;align=center;html=1;fontSize=12;fontStyle=0;aspect=fixed;shape=mxgraph.aws4.resourceIcon;resIcon=mxgraph.aws4.general;" vertex="1" parent="SlCf64y7CMVoOhODyJ3c-1">
            <mxGeometry x="305" y="162" width="70" height="20" as="geometry" />
          </mxCell>
        </UserObject>
        <UserObject label="%host%" host="Order system" placeholders="1" id="AMjJuXL9YxaANUj2ZWoj-8">
          <mxCell style="fontColor=#232F3E;fillColor=#232F3E;verticalLabelPosition=bottom;verticalAlign=top;align=center;html=1;shape=mxgraph.aws4.traditional_server;perimeter=none;strokeColor=#232F3E;aspect=fixed;whiteSpace=wrap;" vertex="1" parent="SlCf64y7CMVoOhODyJ3c-1">
            <mxGeometry x="20" y="233" width="90" height="20" as="geometry" />
          </mxCell>
        </UserObject>
        <UserObject label="%host%" host="Data services" placeholders="1" id="AMjJuXL9YxaANUj2ZWoj-9">
          <mxCell style="fontColor=#232F3E;fillColor=#232F3E;verticalLabelPosition=bottom;verticalAlign=top;align=center;html=1;shape=mxgraph.aws4.traditional_server;perimeter=none;strokeColor=#232F3E;aspect=fixed;whiteSpace=wrap;" vertex="1" parent="SlCf64y7CMVoOhODyJ3c-1">
            <mxGeometry x="150" y="233" width="90" height="20" as="geometry" />
          </mxCell>
        </UserObject>
        <UserObject label="%host%" host="Corporate database" placeholders="1" id="AMjJuXL9YxaANUj2ZWoj-10">
          <mxCell style="fontColor=#232F3E;fillColor=#232F3E;verticalLabelPosition=bottom;verticalAlign=top;align=center;html=1;shape=mxgraph.aws4.generic_database;perimeter=none;strokeColor=#232F3E;labelPosition=center;horizontal=1;aspect=fixed;whiteSpace=wrap;" vertex="1" parent="SlCf64y7CMVoOhODyJ3c-1">
            <mxGeometry x="280" y="233" width="120" height="20" as="geometry" />
          </mxCell>
        </UserObject>
        <UserObject label="%host%" host="Extranet server" placeholders="1" id="AMjJuXL9YxaANUj2ZWoj-11">
          <mxCell style="fontColor=#232F3E;fillColor=#232F3E;verticalLabelPosition=bottom;verticalAlign=top;align=center;html=1;shape=mxgraph.aws4.traditional_server;perimeter=none;strokeColor=#232F3E;aspect=fixed;whiteSpace=wrap;" vertex="1" parent="SlCf64y7CMVoOhODyJ3c-1">
            <mxGeometry x="440" y="233" width="100" height="20" as="geometry" />
          </mxCell>
        </UserObject>
        <mxCell id="AMjJuXL9YxaANUj2ZWoj-12" value="" style="rounded=0;endArrow=none;endFill=0;startArrow=none;startFill=0;jumpStyle=sharp;" edge="1" parent="SlCf64y7CMVoOhODyJ3c-1" source="AMjJuXL9YxaANUj2ZWoj-0" target="AMjJuXL9YxaANUj2ZWoj-2">
          <mxGeometry relative="1" as="geometry">
            <Array as="points">
              <mxPoint x="163.0864197530864" y="73" />
              <mxPoint x="163.0864197530864" y="79" />
            </Array>
          </mxGeometry>
        </mxCell>
        <mxCell id="AMjJuXL9YxaANUj2ZWoj-13" value="" style="rounded=0;endArrow=none;endFill=0;startArrow=none;startFill=0;jumpStyle=sharp;" edge="1" parent="SlCf64y7CMVoOhODyJ3c-1" source="AMjJuXL9YxaANUj2ZWoj-1" target="AMjJuXL9YxaANUj2ZWoj-3">
          <mxGeometry relative="1" as="geometry">
            <Array as="points">
              <mxPoint x="448.75" y="73" />
              <mxPoint x="448.75" y="79" />
            </Array>
          </mxGeometry>
        </mxCell>
        <mxCell id="AMjJuXL9YxaANUj2ZWoj-14" value="" style="rounded=0;endArrow=none;endFill=0;startArrow=none;startFill=0;jumpStyle=sharp;" edge="1" parent="SlCf64y7CMVoOhODyJ3c-1" source="AMjJuXL9YxaANUj2ZWoj-2" target="AMjJuXL9YxaANUj2ZWoj-4">
          <mxGeometry relative="1" as="geometry">
            <Array as="points">
              <mxPoint x="148.0864197530864" y="144" />
              <mxPoint x="95" y="150" />
            </Array>
          </mxGeometry>
        </mxCell>
        <mxCell id="AMjJuXL9YxaANUj2ZWoj-15" value="" style="rounded=0;endArrow=none;endFill=0;startArrow=none;startFill=0;jumpStyle=sharp;" edge="1" parent="SlCf64y7CMVoOhODyJ3c-1" source="AMjJuXL9YxaANUj2ZWoj-2" target="AMjJuXL9YxaANUj2ZWoj-5">
          <mxGeometry relative="1" as="geometry">
            <Array as="points">
              <mxPoint x="178.0864197530864" y="144" />
              <mxPoint x="230" y="150" />
            </Array>
          </mxGeometry>
        </mxCell>
        <mxCell id="AMjJuXL9YxaANUj2ZWoj-16" value="" style="rounded=0;endArrow=none;endFill=0;startArrow=none;startFill=0;jumpStyle=sharp;" edge="1" parent="SlCf64y7CMVoOhODyJ3c-1" source="AMjJuXL9YxaANUj2ZWoj-3" target="AMjJuXL9YxaANUj2ZWoj-6">
          <mxGeometry relative="1" as="geometry">
            <Array as="points">
              <mxPoint x="448.75" y="146" />
              <mxPoint x="450" y="150" />
            </Array>
          </mxGeometry>
        </mxCell>
        <mxCell id="AMjJuXL9YxaANUj2ZWoj-17" value="" style="rounded=0;endArrow=none;endFill=0;startArrow=none;startFill=0;jumpStyle=sharp;" edge="1" parent="SlCf64y7CMVoOhODyJ3c-1" source="AMjJuXL9YxaANUj2ZWoj-3" target="AMjJuXL9YxaANUj2ZWoj-7">
          <mxGeometry relative="1" as="geometry">
            <Array as="points">
              <mxPoint x="428.75" y="144" />
              <mxPoint x="340" y="150" />
            </Array>
          </mxGeometry>
        </mxCell>
        <mxCell id="AMjJuXL9YxaANUj2ZWoj-18" value="" style="rounded=0;endArrow=none;endFill=0;startArrow=none;startFill=0;jumpStyle=sharp;" edge="1" parent="SlCf64y7CMVoOhODyJ3c-1" source="AMjJuXL9YxaANUj2ZWoj-3" target="AMjJuXL9YxaANUj2ZWoj-11">
          <mxGeometry relative="1" as="geometry">
            <Array as="points">
              <mxPoint x="468.75" y="144" />
              <mxPoint x="525" y="147" />
              <mxPoint x="525" y="218" />
              <mxPoint x="520" y="221" />
            </Array>
          </mxGeometry>
        </mxCell>
        <mxCell id="AMjJuXL9YxaANUj2ZWoj-19" value="" style="rounded=0;endArrow=none;endFill=0;startArrow=none;startFill=0;jumpStyle=sharp;" edge="1" parent="SlCf64y7CMVoOhODyJ3c-1" source="AMjJuXL9YxaANUj2ZWoj-4" target="AMjJuXL9YxaANUj2ZWoj-8">
          <mxGeometry relative="1" as="geometry">
            <Array as="points">
              <mxPoint x="95" y="215" />
              <mxPoint x="65" y="221" />
            </Array>
          </mxGeometry>
        </mxCell>
        <mxCell id="AMjJuXL9YxaANUj2ZWoj-20" value="" style="rounded=0;endArrow=none;endFill=0;startArrow=none;startFill=0;jumpStyle=sharp;" edge="1" parent="SlCf64y7CMVoOhODyJ3c-1" source="AMjJuXL9YxaANUj2ZWoj-5" target="AMjJuXL9YxaANUj2ZWoj-9">
          <mxGeometry relative="1" as="geometry">
            <Array as="points">
              <mxPoint x="210" y="215" />
              <mxPoint x="195" y="221" />
            </Array>
          </mxGeometry>
        </mxCell>
        <mxCell id="AMjJuXL9YxaANUj2ZWoj-21" value="" style="rounded=0;endArrow=none;endFill=0;startArrow=none;startFill=0;jumpStyle=sharp;" edge="1" parent="SlCf64y7CMVoOhODyJ3c-1" source="AMjJuXL9YxaANUj2ZWoj-5" target="AMjJuXL9YxaANUj2ZWoj-10">
          <mxGeometry relative="1" as="geometry">
            <Array as="points">
              <mxPoint x="230" y="217" />
              <mxPoint x="312.5" y="221" />
            </Array>
          </mxGeometry>
        </mxCell>
        <mxCell id="AMjJuXL9YxaANUj2ZWoj-22" value="" style="rounded=0;endArrow=none;endFill=0;startArrow=none;startFill=0;jumpStyle=sharp;" edge="1" parent="SlCf64y7CMVoOhODyJ3c-1" source="AMjJuXL9YxaANUj2ZWoj-5" target="AMjJuXL9YxaANUj2ZWoj-11">
          <mxGeometry relative="1" as="geometry">
            <Array as="points">
              <mxPoint x="250" y="215" />
              <mxPoint x="460" y="221" />
            </Array>
          </mxGeometry>
        </mxCell>
        <mxCell id="AMjJuXL9YxaANUj2ZWoj-23" value="" style="rounded=0;endArrow=none;endFill=0;startArrow=none;startFill=0;jumpStyle=sharp;" edge="1" parent="SlCf64y7CMVoOhODyJ3c-1" source="AMjJuXL9YxaANUj2ZWoj-6" target="AMjJuXL9YxaANUj2ZWoj-11">
          <mxGeometry relative="1" as="geometry">
            <Array as="points">
              <mxPoint x="450" y="215" />
              <mxPoint x="490" y="219" />
            </Array>
          </mxGeometry>
        </mxCell>
        <mxCell id="AMjJuXL9YxaANUj2ZWoj-24" value="" style="rounded=0;endArrow=none;endFill=0;startArrow=none;startFill=0;jumpStyle=sharp;" edge="1" parent="SlCf64y7CMVoOhODyJ3c-1" source="AMjJuXL9YxaANUj2ZWoj-7" target="AMjJuXL9YxaANUj2ZWoj-10">
          <mxGeometry relative="1" as="geometry">
            <Array as="points">
              <mxPoint x="340" y="215" />
              <mxPoint x="367.5" y="221" />
            </Array>
          </mxGeometry>
        </mxCell>
      </root>
    </mxGraphModel>
  </diagram>
  <diagram id="6DcY1bCIRsUqGJgRLHeR" name="Gitflow from CSV">
    <mxGraphModel dx="1233" dy="984" grid="1" gridSize="10" guides="1" tooltips="1" connect="1" arrows="1" fold="1" page="1" pageScale="1" pageWidth="1169" pageHeight="827" math="0" shadow="0">
      <root>
        <mxCell id="TfIW9gmbFXG3guPpizKq-0" />
        <mxCell id="TfIW9gmbFXG3guPpizKq-1" parent="TfIW9gmbFXG3guPpizKq-0" />
        <UserObject label="%version%" version="1.0" placeholders="1" id="TfIW9gmbFXG3guPpizKq-2">
          <mxCell style="rhombus;whiteSpace=wrap;html=1;aspect=fixed;fillColor=#dae8fc;strokeColor=#6c8ebf;fontSize=12;labelPosition=center;verticalLabelPosition=top;align=center;verticalAlign=bottom;" vertex="1" parent="TfIW9gmbFXG3guPpizKq-1">
            <mxGeometry x="20" y="121.34375" width="30" height="20" as="geometry" />
          </mxCell>
        </UserObject>
        <UserObject label="%version%" version="1.0.1" placeholders="1" id="TfIW9gmbFXG3guPpizKq-3">
          <mxCell style="ellipse;whiteSpace=wrap;html=1;aspect=fixed;fillColor=#d5e8d4;strokeColor=#82b366;fontSize=12;labelPosition=center;verticalLabelPosition=top;align=center;verticalAlign=bottom;" vertex="1" parent="TfIW9gmbFXG3guPpizKq-1">
            <mxGeometry x="80" y="121.34375" width="40" height="20" as="geometry" />
          </mxCell>
        </UserObject>
        <UserObject label="%version%" version="A.1" placeholders="1" id="TfIW9gmbFXG3guPpizKq-4">
          <mxCell style="rounded=1;whiteSpace=wrap;html=1;aspect=fixed;fillColor=#e1d5e7;strokeColor=#9673a6;fontSize=12;labelPosition=center;verticalLabelPosition=top;align=center;verticalAlign=bottom;" vertex="1" parent="TfIW9gmbFXG3guPpizKq-1">
            <mxGeometry x="150" y="65.5" width="30" height="20" as="geometry" />
          </mxCell>
        </UserObject>
        <UserObject label="%version%" version="B.1" placeholders="1" id="TfIW9gmbFXG3guPpizKq-5">
          <mxCell style="rounded=1;whiteSpace=wrap;html=1;aspect=fixed;fillColor=#e1d5e7;strokeColor=#9673a6;fontSize=12;labelPosition=center;verticalLabelPosition=top;align=center;verticalAlign=bottom;" vertex="1" parent="TfIW9gmbFXG3guPpizKq-1">
            <mxGeometry x="150" y="122.5" width="30" height="20" as="geometry" />
          </mxCell>
        </UserObject>
        <UserObject label="%version%" version="B.1.1" placeholders="1" id="TfIW9gmbFXG3guPpizKq-6">
          <mxCell style="shape=process;rounded=1;whiteSpace=wrap;html=1;aspect=fixed;fillColor=#f5f5f5;strokeColor=#666666;fontSize=12;labelPosition=center;verticalLabelPosition=top;align=center;verticalAlign=bottom;" vertex="1" parent="TfIW9gmbFXG3guPpizKq-1">
            <mxGeometry x="210" y="122.5" width="40" height="20" as="geometry" />
          </mxCell>
        </UserObject>
        <UserObject label="%version%" version="1.0.2" placeholders="1" id="TfIW9gmbFXG3guPpizKq-7">
          <mxCell style="ellipse;whiteSpace=wrap;html=1;aspect=fixed;fillColor=#d5e8d4;strokeColor=#82b366;fontSize=12;labelPosition=center;verticalLabelPosition=top;align=center;verticalAlign=bottom;" vertex="1" parent="TfIW9gmbFXG3guPpizKq-1">
            <mxGeometry x="350" y="152.5" width="40" height="20" as="geometry" />
          </mxCell>
        </UserObject>
        <UserObject label="%version%" version="B.1.2" placeholders="1" id="TfIW9gmbFXG3guPpizKq-8">
          <mxCell style="shape=process;rounded=1;whiteSpace=wrap;html=1;aspect=fixed;fillColor=#f5f5f5;strokeColor=#666666;fontSize=12;labelPosition=center;verticalLabelPosition=top;align=center;verticalAlign=bottom;" vertex="1" parent="TfIW9gmbFXG3guPpizKq-1">
            <mxGeometry x="280" y="104" width="40" height="20" as="geometry" />
          </mxCell>
        </UserObject>
        <UserObject label="%version%" version="A.1.1" placeholders="1" id="TfIW9gmbFXG3guPpizKq-9">
          <mxCell style="shape=process;rounded=1;whiteSpace=wrap;html=1;aspect=fixed;fillColor=#f5f5f5;strokeColor=#666666;fontSize=12;labelPosition=center;verticalLabelPosition=top;align=center;verticalAlign=bottom;" vertex="1" parent="TfIW9gmbFXG3guPpizKq-1">
            <mxGeometry x="210" y="45.5" width="40" height="20" as="geometry" />
          </mxCell>
        </UserObject>
        <UserObject label="%version%" version="B.2" placeholders="1" id="TfIW9gmbFXG3guPpizKq-10">
          <mxCell style="rounded=1;whiteSpace=wrap;html=1;aspect=fixed;fillColor=#e1d5e7;strokeColor=#9673a6;fontSize=12;labelPosition=center;verticalLabelPosition=top;align=center;verticalAlign=bottom;" vertex="1" parent="TfIW9gmbFXG3guPpizKq-1">
            <mxGeometry x="355" y="95.5" width="30" height="20" as="geometry" />
          </mxCell>
        </UserObject>
        <UserObject label="%version%" version="A.1.2" placeholders="1" id="TfIW9gmbFXG3guPpizKq-11">
          <mxCell style="shape=process;rounded=1;whiteSpace=wrap;html=1;aspect=fixed;fillColor=#f5f5f5;strokeColor=#666666;fontSize=12;labelPosition=center;verticalLabelPosition=top;align=center;verticalAlign=bottom;" vertex="1" parent="TfIW9gmbFXG3guPpizKq-1">
            <mxGeometry x="490" y="65.5" width="40" height="20" as="geometry" />
          </mxCell>
        </UserObject>
        <UserObject label="%version%" version="2.0.3" placeholders="1" id="TfIW9gmbFXG3guPpizKq-12">
          <mxCell style="ellipse;whiteSpace=wrap;html=1;aspect=fixed;fillColor=#d5e8d4;strokeColor=#82b366;fontSize=12;labelPosition=center;verticalLabelPosition=top;align=center;verticalAlign=bottom;" vertex="1" parent="TfIW9gmbFXG3guPpizKq-1">
            <mxGeometry x="420" y="132.875" width="40" height="20" as="geometry" />
          </mxCell>
        </UserObject>
        <UserObject label="%version%" version="A.2" placeholders="1" id="TfIW9gmbFXG3guPpizKq-13">
          <mxCell style="rounded=1;whiteSpace=wrap;html=1;aspect=fixed;fillColor=#e1d5e7;strokeColor=#9673a6;fontSize=12;labelPosition=center;verticalLabelPosition=top;align=center;verticalAlign=bottom;" vertex="1" parent="TfIW9gmbFXG3guPpizKq-1">
            <mxGeometry x="495" y="122.5" width="30" height="20" as="geometry" />
          </mxCell>
        </UserObject>
        <UserObject label="%version%" version="A.2.1" placeholders="1" id="TfIW9gmbFXG3guPpizKq-14">
          <mxCell style="shape=process;rounded=1;whiteSpace=wrap;html=1;aspect=fixed;fillColor=#f5f5f5;strokeColor=#666666;fontSize=12;labelPosition=center;verticalLabelPosition=top;align=center;verticalAlign=bottom;" vertex="1" parent="TfIW9gmbFXG3guPpizKq-1">
            <mxGeometry x="560" y="84" width="40" height="20" as="geometry" />
          </mxCell>
        </UserObject>
        <UserObject label="%version%" version="A.3" placeholders="1" id="TfIW9gmbFXG3guPpizKq-15">
          <mxCell style="rounded=1;whiteSpace=wrap;html=1;aspect=fixed;fillColor=#e1d5e7;strokeColor=#9673a6;fontSize=12;labelPosition=center;verticalLabelPosition=top;align=center;verticalAlign=bottom;" vertex="1" parent="TfIW9gmbFXG3guPpizKq-1">
            <mxGeometry x="630" y="94" width="30" height="20" as="geometry" />
          </mxCell>
        </UserObject>
        <UserObject label="%version%" version="2.0.4" placeholders="1" id="TfIW9gmbFXG3guPpizKq-16">
          <mxCell style="ellipse;whiteSpace=wrap;html=1;aspect=fixed;fillColor=#d5e8d4;strokeColor=#82b366;fontSize=12;labelPosition=center;verticalLabelPosition=top;align=center;verticalAlign=bottom;" vertex="1" parent="TfIW9gmbFXG3guPpizKq-1">
            <mxGeometry x="690" y="113.25" width="40" height="20" as="geometry" />
          </mxCell>
        </UserObject>
        <UserObject label="%version%" version="RC1" placeholders="1" id="TfIW9gmbFXG3guPpizKq-17">
          <mxCell style="shape=hexagon;perimeter=hexagonPerimeter2;whiteSpace=wrap;html=1;aspect=fixed;fillColor=#ffe6cc;strokeColor=#d79b00;fontSize=12;labelPosition=center;verticalLabelPosition=top;align=center;verticalAlign=bottom;" vertex="1" parent="TfIW9gmbFXG3guPpizKq-1">
            <mxGeometry x="760" y="94" width="40" height="20" as="geometry" />
          </mxCell>
        </UserObject>
        <UserObject label="%version%" version="RC1.1" placeholders="1" id="TfIW9gmbFXG3guPpizKq-18">
          <mxCell style="shape=hexagon;perimeter=hexagonPerimeter2;whiteSpace=wrap;html=1;aspect=fixed;fillColor=#ffe6cc;strokeColor=#d79b00;fontSize=12;labelPosition=center;verticalLabelPosition=top;align=center;verticalAlign=bottom;" vertex="1" parent="TfIW9gmbFXG3guPpizKq-1">
            <mxGeometry x="830" y="84" width="50" height="20" as="geometry" />
          </mxCell>
        </UserObject>
        <UserObject label="%version%" version="RC1.2" placeholders="1" id="TfIW9gmbFXG3guPpizKq-19">
          <mxCell style="shape=hexagon;perimeter=hexagonPerimeter2;whiteSpace=wrap;html=1;aspect=fixed;fillColor=#ffe6cc;strokeColor=#d79b00;fontSize=12;labelPosition=center;verticalLabelPosition=top;align=center;verticalAlign=bottom;" vertex="1" parent="TfIW9gmbFXG3guPpizKq-1">
            <mxGeometry x="910" y="84" width="50" height="20" as="geometry" />
          </mxCell>
        </UserObject>
        <UserObject label="%version%" version="RC2" placeholders="1" id="TfIW9gmbFXG3guPpizKq-20">
          <mxCell style="shape=hexagon;perimeter=hexagonPerimeter2;whiteSpace=wrap;html=1;aspect=fixed;fillColor=#ffe6cc;strokeColor=#d79b00;fontSize=12;labelPosition=center;verticalLabelPosition=top;align=center;verticalAlign=bottom;" vertex="1" parent="TfIW9gmbFXG3guPpizKq-1">
            <mxGeometry x="990" y="94" width="40" height="20" as="geometry" />
          </mxCell>
        </UserObject>
        <UserObject label="%version%" version="RC2.1" placeholders="1" id="TfIW9gmbFXG3guPpizKq-21">
          <mxCell style="shape=hexagon;perimeter=hexagonPerimeter2;whiteSpace=wrap;html=1;aspect=fixed;fillColor=#ffe6cc;strokeColor=#d79b00;fontSize=12;labelPosition=center;verticalLabelPosition=top;align=center;verticalAlign=bottom;" vertex="1" parent="TfIW9gmbFXG3guPpizKq-1">
            <mxGeometry x="1060" y="84" width="50" height="20" as="geometry" />
          </mxCell>
        </UserObject>
        <UserObject label="%version%" version="RC3" placeholders="1" id="TfIW9gmbFXG3guPpizKq-22">
          <mxCell style="shape=hexagon;perimeter=hexagonPerimeter2;whiteSpace=wrap;html=1;aspect=fixed;fillColor=#ffe6cc;strokeColor=#d79b00;fontSize=12;labelPosition=center;verticalLabelPosition=top;align=center;verticalAlign=bottom;" vertex="1" parent="TfIW9gmbFXG3guPpizKq-1">
            <mxGeometry x="1140" y="94" width="40" height="20" as="geometry" />
          </mxCell>
        </UserObject>
        <UserObject label="%version%" version="2.0" placeholders="1" id="TfIW9gmbFXG3guPpizKq-23">
          <mxCell style="rhombus;whiteSpace=wrap;html=1;aspect=fixed;fillColor=#dae8fc;strokeColor=#6c8ebf;fontSize=12;labelPosition=center;verticalLabelPosition=top;align=center;verticalAlign=bottom;" vertex="1" parent="TfIW9gmbFXG3guPpizKq-1">
            <mxGeometry x="1210" y="94" width="30" height="20" as="geometry" />
          </mxCell>
        </UserObject>
        <UserObject label="%version%" version="2.0.1" placeholders="1" id="TfIW9gmbFXG3guPpizKq-24">
          <mxCell style="ellipse;whiteSpace=wrap;html=1;aspect=fixed;fillColor=#d5e8d4;strokeColor=#82b366;fontSize=12;labelPosition=center;verticalLabelPosition=top;align=center;verticalAlign=bottom;" vertex="1" parent="TfIW9gmbFXG3guPpizKq-1">
            <mxGeometry x="1270" y="124.8" width="40" height="20" as="geometry" />
          </mxCell>
        </UserObject>
        <UserObject label="%version%" version="HF1" placeholders="1" id="TfIW9gmbFXG3guPpizKq-25">
          <mxCell style="rhombus;whiteSpace=wrap;html=1;aspect=fixed;fontSize=10;fillColor=#f8cecc;strokeColor=#b85450;fontSize=12;labelPosition=center;verticalLabelPosition=top;align=center;verticalAlign=bottom;" vertex="1" parent="TfIW9gmbFXG3guPpizKq-1">
            <mxGeometry x="1270" y="65.5" width="40" height="20" as="geometry" />
          </mxCell>
        </UserObject>
        <UserObject label="%version%" version="C.1" placeholders="1" id="TfIW9gmbFXG3guPpizKq-26">
          <mxCell style="rounded=1;whiteSpace=wrap;html=1;aspect=fixed;fillColor=#e1d5e7;strokeColor=#9673a6;fontSize=12;labelPosition=center;verticalLabelPosition=top;align=center;verticalAlign=bottom;" vertex="1" parent="TfIW9gmbFXG3guPpizKq-1">
            <mxGeometry x="1340" y="94" width="30" height="20" as="geometry" />
          </mxCell>
        </UserObject>
        <UserObject label="%version%" version="D.1" placeholders="1" id="TfIW9gmbFXG3guPpizKq-27">
          <mxCell style="rounded=1;whiteSpace=wrap;html=1;aspect=fixed;fillColor=#e1d5e7;strokeColor=#9673a6;fontSize=12;labelPosition=center;verticalLabelPosition=top;align=center;verticalAlign=bottom;" vertex="1" parent="TfIW9gmbFXG3guPpizKq-1">
            <mxGeometry x="1340" y="171" width="30" height="20" as="geometry" />
          </mxCell>
        </UserObject>
        <UserObject label="%version%" version="D.1.1" placeholders="1" id="TfIW9gmbFXG3guPpizKq-28">
          <mxCell style="shape=process;rounded=1;whiteSpace=wrap;html=1;aspect=fixed;fillColor=#f5f5f5;strokeColor=#666666;fontSize=12;labelPosition=center;verticalLabelPosition=top;align=center;verticalAlign=bottom;" vertex="1" parent="TfIW9gmbFXG3guPpizKq-1">
            <mxGeometry x="1400" y="171" width="40" height="20" as="geometry" />
          </mxCell>
        </UserObject>
        <UserObject label="%version%" version="2.1" placeholders="1" id="TfIW9gmbFXG3guPpizKq-29">
          <mxCell style="rhombus;whiteSpace=wrap;html=1;aspect=fixed;fillColor=#dae8fc;strokeColor=#6c8ebf;fontSize=12;labelPosition=center;verticalLabelPosition=top;align=center;verticalAlign=bottom;" vertex="1" parent="TfIW9gmbFXG3guPpizKq-1">
            <mxGeometry x="1340" y="37" width="30" height="20" as="geometry" />
          </mxCell>
        </UserObject>
        <UserObject label="%version%" version="2.1.2" placeholders="1" id="TfIW9gmbFXG3guPpizKq-30">
          <mxCell style="ellipse;whiteSpace=wrap;html=1;aspect=fixed;fillColor=#d5e8d4;strokeColor=#82b366;fontSize=12;labelPosition=center;verticalLabelPosition=top;align=center;verticalAlign=bottom;" vertex="1" parent="TfIW9gmbFXG3guPpizKq-1">
            <mxGeometry x="1400" y="75.5" width="40" height="20" as="geometry" />
          </mxCell>
        </UserObject>
        <UserObject label="%version%" version="Master" placeholders="1" id="TfIW9gmbFXG3guPpizKq-31">
          <mxCell style="rhombus;whiteSpace=wrap;html=1;aspect=fixed;fillColor=#dae8fc;strokeColor=#6c8ebf;fontSize=12;labelPosition=center;verticalLabelPosition=top;align=center;verticalAlign=bottom;" vertex="1" parent="TfIW9gmbFXG3guPpizKq-1">
            <mxGeometry x="20" y="296.5" width="50" height="20" as="geometry" />
          </mxCell>
        </UserObject>
        <UserObject label="%version%" version="HotFix" placeholders="1" id="TfIW9gmbFXG3guPpizKq-32">
          <mxCell style="rhombus;whiteSpace=wrap;html=1;aspect=fixed;fontSize=10;fillColor=#f8cecc;strokeColor=#b85450;fontSize=12;labelPosition=center;verticalLabelPosition=top;align=center;verticalAlign=bottom;" vertex="1" parent="TfIW9gmbFXG3guPpizKq-1">
            <mxGeometry x="105" y="268" width="50" height="20" as="geometry" />
          </mxCell>
        </UserObject>
        <UserObject label="%version%" version="Release" placeholders="1" id="TfIW9gmbFXG3guPpizKq-33">
          <mxCell style="shape=hexagon;perimeter=hexagonPerimeter2;whiteSpace=wrap;html=1;aspect=fixed;fillColor=#ffe6cc;strokeColor=#d79b00;fontSize=12;labelPosition=center;verticalLabelPosition=top;align=center;verticalAlign=bottom;" vertex="1" parent="TfIW9gmbFXG3guPpizKq-1">
            <mxGeometry x="100" y="325" width="60" height="20" as="geometry" />
          </mxCell>
        </UserObject>
        <UserObject label="%version%" version="ReleaseFixes" placeholders="1" id="TfIW9gmbFXG3guPpizKq-34">
          <mxCell style="shape=hexagon;perimeter=hexagonPerimeter2;whiteSpace=wrap;html=1;aspect=fixed;fillColor=#ffe6cc;strokeColor=#d79b00;fontSize=12;labelPosition=center;verticalLabelPosition=top;align=center;verticalAlign=bottom;" vertex="1" parent="TfIW9gmbFXG3guPpizKq-1">
            <mxGeometry x="190" y="268" width="90" height="20" as="geometry" />
          </mxCell>
        </UserObject>
        <UserObject label="%version%" version="Nightly" placeholders="1" id="TfIW9gmbFXG3guPpizKq-35">
          <mxCell style="ellipse;whiteSpace=wrap;html=1;aspect=fixed;fillColor=#d5e8d4;strokeColor=#82b366;fontSize=12;labelPosition=center;verticalLabelPosition=top;align=center;verticalAlign=bottom;" vertex="1" parent="TfIW9gmbFXG3guPpizKq-1">
            <mxGeometry x="210" y="325" width="50" height="20" as="geometry" />
          </mxCell>
        </UserObject>
        <UserObject label="%version%" version="FeatureTeam1" placeholders="1" id="TfIW9gmbFXG3guPpizKq-36">
          <mxCell style="rounded=1;whiteSpace=wrap;html=1;aspect=fixed;fillColor=#e1d5e7;strokeColor=#9673a6;fontSize=12;labelPosition=center;verticalLabelPosition=top;align=center;verticalAlign=bottom;" vertex="1" parent="TfIW9gmbFXG3guPpizKq-1">
            <mxGeometry x="310" y="268" width="90" height="20" as="geometry" />
          </mxCell>
        </UserObject>
        <UserObject label="%version%" version="FeatureTeam2" placeholders="1" id="TfIW9gmbFXG3guPpizKq-37">
          <mxCell style="rounded=1;whiteSpace=wrap;html=1;aspect=fixed;fillColor=#e1d5e7;strokeColor=#9673a6;fontSize=12;labelPosition=center;verticalLabelPosition=top;align=center;verticalAlign=bottom;" vertex="1" parent="TfIW9gmbFXG3guPpizKq-1">
            <mxGeometry x="310" y="325" width="90" height="20" as="geometry" />
          </mxCell>
        </UserObject>
        <UserObject label="%version%" version="Dev" placeholders="1" id="TfIW9gmbFXG3guPpizKq-38">
          <mxCell style="shape=process;rounded=1;whiteSpace=wrap;html=1;aspect=fixed;fillColor=#f5f5f5;strokeColor=#666666;fontSize=12;labelPosition=center;verticalLabelPosition=top;align=center;verticalAlign=bottom;" vertex="1" parent="TfIW9gmbFXG3guPpizKq-1">
            <mxGeometry x="430" y="296.5" width="40" height="20" as="geometry" />
          </mxCell>
        </UserObject>
        <mxCell id="TfIW9gmbFXG3guPpizKq-39" value="" style="rounded=1;dashed=1;endArrow=none;endFill=0;startArrow=none;edgeStyle=elbowEdgeStyle;" edge="1" parent="TfIW9gmbFXG3guPpizKq-1" source="TfIW9gmbFXG3guPpizKq-2" target="TfIW9gmbFXG3guPpizKq-3">
          <mxGeometry relative="1" as="geometry">
            <Array as="points">
              <mxPoint x="62" y="122.84375" />
              <mxPoint x="68" y="122.84375" />
            </Array>
          </mxGeometry>
        </mxCell>
        <mxCell id="TfIW9gmbFXG3guPpizKq-40" value="" style="rounded=1;dashed=1;endArrow=none;endFill=0;startArrow=none;edgeStyle=elbowEdgeStyle;" edge="1" parent="TfIW9gmbFXG3guPpizKq-1" source="TfIW9gmbFXG3guPpizKq-3" target="TfIW9gmbFXG3guPpizKq-4">
          <mxGeometry relative="1" as="geometry">
            <Array as="points">
              <mxPoint x="132" y="113.84375" />
              <mxPoint x="138" y="67" />
            </Array>
          </mxGeometry>
        </mxCell>
        <mxCell id="TfIW9gmbFXG3guPpizKq-41" value="" style="rounded=1;dashed=1;endArrow=none;endFill=0;startArrow=none;edgeStyle=elbowEdgeStyle;" edge="1" parent="TfIW9gmbFXG3guPpizKq-1" source="TfIW9gmbFXG3guPpizKq-3" target="TfIW9gmbFXG3guPpizKq-5">
          <mxGeometry relative="1" as="geometry">
            <Array as="points">
              <mxPoint x="134" y="122.84375" />
              <mxPoint x="138" y="124" />
            </Array>
          </mxGeometry>
        </mxCell>
        <mxCell id="TfIW9gmbFXG3guPpizKq-42" value="" style="rounded=1;dashed=1;endArrow=none;endFill=0;startArrow=none;edgeStyle=elbowEdgeStyle;" edge="1" parent="TfIW9gmbFXG3guPpizKq-1" source="TfIW9gmbFXG3guPpizKq-3" target="TfIW9gmbFXG3guPpizKq-7">
          <mxGeometry relative="1" as="geometry">
            <Array as="points">
              <mxPoint x="132" y="131.84375" />
              <mxPoint x="135" y="182.5" />
              <mxPoint x="195" y="182.5" />
              <mxPoint x="195" y="182.5" />
              <mxPoint x="265" y="182.5" />
              <mxPoint x="265" y="182.5" />
              <mxPoint x="335" y="182.5" />
              <mxPoint x="338" y="154" />
            </Array>
          </mxGeometry>
        </mxCell>
        <mxCell id="TfIW9gmbFXG3guPpizKq-43" value="" style="rounded=1;dashed=1;endArrow=none;endFill=0;startArrow=none;edgeStyle=elbowEdgeStyle;" edge="1" parent="TfIW9gmbFXG3guPpizKq-1" source="TfIW9gmbFXG3guPpizKq-4" target="TfIW9gmbFXG3guPpizKq-9">
          <mxGeometry relative="1" as="geometry">
            <Array as="points">
              <mxPoint x="192" y="60.25" />
              <mxPoint x="198" y="47" />
            </Array>
          </mxGeometry>
        </mxCell>
        <mxCell id="TfIW9gmbFXG3guPpizKq-44" value="" style="rounded=1;dashed=1;endArrow=none;endFill=0;startArrow=none;edgeStyle=elbowEdgeStyle;" edge="1" parent="TfIW9gmbFXG3guPpizKq-1" source="TfIW9gmbFXG3guPpizKq-4" target="TfIW9gmbFXG3guPpizKq-13">
          <mxGeometry relative="1" as="geometry">
            <Array as="points">
              <mxPoint x="192" y="73.75" />
              <mxPoint x="195" y="85.5" />
              <mxPoint x="265" y="85.5" />
              <mxPoint x="265" y="58.5" />
              <mxPoint x="335" y="58.5" />
              <mxPoint x="335" y="58.5" />
              <mxPoint x="405" y="58.5" />
              <mxPoint x="405" y="58.5" />
              <mxPoint x="475" y="58.5" />
              <mxPoint x="478" y="117.25" />
            </Array>
          </mxGeometry>
        </mxCell>
        <mxCell id="TfIW9gmbFXG3guPpizKq-45" value="" style="rounded=1;dashed=1;endArrow=none;endFill=0;startArrow=none;edgeStyle=elbowEdgeStyle;" edge="1" parent="TfIW9gmbFXG3guPpizKq-1" source="TfIW9gmbFXG3guPpizKq-5" target="TfIW9gmbFXG3guPpizKq-6">
          <mxGeometry relative="1" as="geometry">
            <Array as="points">
              <mxPoint x="192" y="117.25" />
              <mxPoint x="198" y="124" />
            </Array>
          </mxGeometry>
        </mxCell>
        <mxCell id="TfIW9gmbFXG3guPpizKq-46" value="" style="rounded=1;dashed=1;endArrow=none;endFill=0;startArrow=none;edgeStyle=elbowEdgeStyle;" edge="1" parent="TfIW9gmbFXG3guPpizKq-1" source="TfIW9gmbFXG3guPpizKq-5" target="TfIW9gmbFXG3guPpizKq-10">
          <mxGeometry relative="1" as="geometry">
            <Array as="points">
              <mxPoint x="192" y="130.75" />
              <mxPoint x="195" y="162.5" />
              <mxPoint x="265" y="162.5" />
              <mxPoint x="265" y="162.5" />
              <mxPoint x="335" y="162.5" />
              <mxPoint x="338" y="103.75" />
            </Array>
          </mxGeometry>
        </mxCell>
        <mxCell id="TfIW9gmbFXG3guPpizKq-47" value="" style="rounded=1;dashed=1;endArrow=none;endFill=0;startArrow=none;edgeStyle=elbowEdgeStyle;" edge="1" parent="TfIW9gmbFXG3guPpizKq-1" source="TfIW9gmbFXG3guPpizKq-6" target="TfIW9gmbFXG3guPpizKq-8">
          <mxGeometry relative="1" as="geometry">
            <Array as="points">
              <mxPoint x="262" y="124" />
              <mxPoint x="268" y="105.5" />
            </Array>
          </mxGeometry>
        </mxCell>
        <mxCell id="TfIW9gmbFXG3guPpizKq-48" value="" style="rounded=1;dashed=1;endArrow=none;endFill=0;startArrow=none;edgeStyle=elbowEdgeStyle;" edge="1" parent="TfIW9gmbFXG3guPpizKq-1" source="TfIW9gmbFXG3guPpizKq-7" target="TfIW9gmbFXG3guPpizKq-12">
          <mxGeometry relative="1" as="geometry">
            <Array as="points">
              <mxPoint x="402" y="154" />
              <mxPoint x="408" y="141.125" />
            </Array>
          </mxGeometry>
        </mxCell>
        <mxCell id="TfIW9gmbFXG3guPpizKq-49" value="" style="rounded=1;dashed=1;endArrow=none;endFill=0;startArrow=none;edgeStyle=elbowEdgeStyle;" edge="1" parent="TfIW9gmbFXG3guPpizKq-1" source="TfIW9gmbFXG3guPpizKq-8" target="TfIW9gmbFXG3guPpizKq-10">
          <mxGeometry relative="1" as="geometry">
            <Array as="points">
              <mxPoint x="332" y="105.5" />
              <mxPoint x="338" y="90.25" />
            </Array>
          </mxGeometry>
        </mxCell>
        <mxCell id="TfIW9gmbFXG3guPpizKq-50" value="" style="rounded=1;dashed=1;endArrow=none;endFill=0;startArrow=none;edgeStyle=elbowEdgeStyle;" edge="1" parent="TfIW9gmbFXG3guPpizKq-1" source="TfIW9gmbFXG3guPpizKq-9" target="TfIW9gmbFXG3guPpizKq-11">
          <mxGeometry relative="1" as="geometry">
            <Array as="points">
              <mxPoint x="262" y="47" />
              <mxPoint x="265" y="38.5" />
              <mxPoint x="335" y="38.5" />
              <mxPoint x="335" y="38.5" />
              <mxPoint x="405" y="38.5" />
              <mxPoint x="405" y="38.5" />
              <mxPoint x="475" y="38.5" />
              <mxPoint x="478" y="67" />
            </Array>
          </mxGeometry>
        </mxCell>
        <mxCell id="TfIW9gmbFXG3guPpizKq-51" value="" style="rounded=1;dashed=1;endArrow=none;endFill=0;startArrow=none;edgeStyle=elbowEdgeStyle;" edge="1" parent="TfIW9gmbFXG3guPpizKq-1" source="TfIW9gmbFXG3guPpizKq-10" target="TfIW9gmbFXG3guPpizKq-12">
          <mxGeometry relative="1" as="geometry">
            <Array as="points">
              <mxPoint x="402" y="97" />
              <mxPoint x="408" y="127.625" />
            </Array>
          </mxGeometry>
        </mxCell>
        <mxCell id="TfIW9gmbFXG3guPpizKq-52" value="" style="rounded=1;dashed=1;endArrow=none;endFill=0;startArrow=none;edgeStyle=elbowEdgeStyle;" edge="1" parent="TfIW9gmbFXG3guPpizKq-1" source="TfIW9gmbFXG3guPpizKq-11" target="TfIW9gmbFXG3guPpizKq-14">
          <mxGeometry relative="1" as="geometry">
            <Array as="points">
              <mxPoint x="542" y="67" />
              <mxPoint x="548" y="78.75" />
            </Array>
          </mxGeometry>
        </mxCell>
        <mxCell id="TfIW9gmbFXG3guPpizKq-53" value="" style="rounded=1;dashed=1;endArrow=none;endFill=0;startArrow=none;edgeStyle=elbowEdgeStyle;" edge="1" parent="TfIW9gmbFXG3guPpizKq-1" source="TfIW9gmbFXG3guPpizKq-12" target="TfIW9gmbFXG3guPpizKq-13">
          <mxGeometry relative="1" as="geometry">
            <Array as="points">
              <mxPoint x="472" y="127.625" />
              <mxPoint x="478" y="130.75" />
            </Array>
          </mxGeometry>
        </mxCell>
        <mxCell id="TfIW9gmbFXG3guPpizKq-54" value="" style="rounded=1;dashed=1;endArrow=none;endFill=0;startArrow=none;edgeStyle=elbowEdgeStyle;" edge="1" parent="TfIW9gmbFXG3guPpizKq-1" source="TfIW9gmbFXG3guPpizKq-12" target="TfIW9gmbFXG3guPpizKq-16">
          <mxGeometry relative="1" as="geometry">
            <Array as="points">
              <mxPoint x="472" y="141.125" />
              <mxPoint x="475" y="162.5" />
              <mxPoint x="545" y="162.5" />
              <mxPoint x="545" y="162.5" />
              <mxPoint x="615" y="162.5" />
              <mxPoint x="615" y="162.5" />
              <mxPoint x="675" y="162.5" />
              <mxPoint x="678" y="121.5" />
            </Array>
          </mxGeometry>
        </mxCell>
        <mxCell id="TfIW9gmbFXG3guPpizKq-55" value="" style="rounded=1;dashed=1;endArrow=none;endFill=0;startArrow=none;edgeStyle=elbowEdgeStyle;" edge="1" parent="TfIW9gmbFXG3guPpizKq-1" source="TfIW9gmbFXG3guPpizKq-13" target="TfIW9gmbFXG3guPpizKq-14">
          <mxGeometry relative="1" as="geometry">
            <Array as="points">
              <mxPoint x="542" y="117.25" />
              <mxPoint x="548" y="92.25" />
            </Array>
          </mxGeometry>
        </mxCell>
        <mxCell id="TfIW9gmbFXG3guPpizKq-56" value="" style="rounded=1;dashed=1;endArrow=none;endFill=0;startArrow=none;edgeStyle=elbowEdgeStyle;" edge="1" parent="TfIW9gmbFXG3guPpizKq-1" source="TfIW9gmbFXG3guPpizKq-13" target="TfIW9gmbFXG3guPpizKq-15">
          <mxGeometry relative="1" as="geometry">
            <Array as="points">
              <mxPoint x="542" y="130.75" />
              <mxPoint x="545" y="124" />
              <mxPoint x="615" y="124" />
              <mxPoint x="618" y="102.25" />
            </Array>
          </mxGeometry>
        </mxCell>
        <mxCell id="TfIW9gmbFXG3guPpizKq-57" value="" style="rounded=1;dashed=1;endArrow=none;endFill=0;startArrow=none;edgeStyle=elbowEdgeStyle;" edge="1" parent="TfIW9gmbFXG3guPpizKq-1" source="TfIW9gmbFXG3guPpizKq-14" target="TfIW9gmbFXG3guPpizKq-15">
          <mxGeometry relative="1" as="geometry">
            <Array as="points">
              <mxPoint x="612" y="85.5" />
              <mxPoint x="618" y="88.75" />
            </Array>
          </mxGeometry>
        </mxCell>
        <mxCell id="TfIW9gmbFXG3guPpizKq-58" value="" style="rounded=1;dashed=1;endArrow=none;endFill=0;startArrow=none;edgeStyle=elbowEdgeStyle;" edge="1" parent="TfIW9gmbFXG3guPpizKq-1" source="TfIW9gmbFXG3guPpizKq-15" target="TfIW9gmbFXG3guPpizKq-16">
          <mxGeometry relative="1" as="geometry">
            <Array as="points">
              <mxPoint x="672" y="95.5" />
              <mxPoint x="678" y="108" />
            </Array>
          </mxGeometry>
        </mxCell>
        <mxCell id="TfIW9gmbFXG3guPpizKq-59" value="" style="rounded=1;dashed=1;endArrow=none;endFill=0;startArrow=none;edgeStyle=elbowEdgeStyle;" edge="1" parent="TfIW9gmbFXG3guPpizKq-1" source="TfIW9gmbFXG3guPpizKq-16" target="TfIW9gmbFXG3guPpizKq-17">
          <mxGeometry relative="1" as="geometry">
            <Array as="points">
              <mxPoint x="742" y="108" />
              <mxPoint x="748" y="95.5" />
            </Array>
          </mxGeometry>
        </mxCell>
        <mxCell id="TfIW9gmbFXG3guPpizKq-60" value="" style="rounded=1;dashed=1;endArrow=none;endFill=0;startArrow=none;edgeStyle=elbowEdgeStyle;" edge="1" parent="TfIW9gmbFXG3guPpizKq-1" source="TfIW9gmbFXG3guPpizKq-16" target="TfIW9gmbFXG3guPpizKq-24">
          <mxGeometry relative="1" as="geometry">
            <Array as="points">
              <mxPoint x="742" y="121.5" />
              <mxPoint x="745" y="144" />
              <mxPoint x="815" y="144" />
              <mxPoint x="815" y="144" />
              <mxPoint x="895" y="144" />
              <mxPoint x="895" y="144" />
              <mxPoint x="975" y="144" />
              <mxPoint x="975" y="144" />
              <mxPoint x="1045" y="144" />
              <mxPoint x="1045" y="144" />
              <mxPoint x="1125" y="144" />
              <mxPoint x="1125" y="144" />
              <mxPoint x="1195" y="144" />
              <mxPoint x="1195" y="144" />
              <mxPoint x="1255" y="144" />
              <mxPoint x="1258" y="133.05" />
            </Array>
          </mxGeometry>
        </mxCell>
        <mxCell id="TfIW9gmbFXG3guPpizKq-61" value="" style="rounded=1;dashed=1;endArrow=none;endFill=0;startArrow=none;edgeStyle=elbowEdgeStyle;" edge="1" parent="TfIW9gmbFXG3guPpizKq-1" source="TfIW9gmbFXG3guPpizKq-17" target="TfIW9gmbFXG3guPpizKq-18">
          <mxGeometry relative="1" as="geometry">
            <Array as="points">
              <mxPoint x="812" y="88.75" />
              <mxPoint x="818" y="85.5" />
            </Array>
          </mxGeometry>
        </mxCell>
        <mxCell id="TfIW9gmbFXG3guPpizKq-62" value="" style="rounded=1;dashed=1;endArrow=none;endFill=0;startArrow=none;edgeStyle=elbowEdgeStyle;" edge="1" parent="TfIW9gmbFXG3guPpizKq-1" source="TfIW9gmbFXG3guPpizKq-17" target="TfIW9gmbFXG3guPpizKq-20">
          <mxGeometry relative="1" as="geometry">
            <Array as="points">
              <mxPoint x="812" y="102.25" />
              <mxPoint x="815" y="124" />
              <mxPoint x="895" y="124" />
              <mxPoint x="895" y="124" />
              <mxPoint x="975" y="124" />
              <mxPoint x="978" y="102.25" />
            </Array>
          </mxGeometry>
        </mxCell>
        <mxCell id="TfIW9gmbFXG3guPpizKq-63" value="" style="rounded=1;dashed=1;endArrow=none;endFill=0;startArrow=none;edgeStyle=elbowEdgeStyle;" edge="1" parent="TfIW9gmbFXG3guPpizKq-1" source="TfIW9gmbFXG3guPpizKq-18" target="TfIW9gmbFXG3guPpizKq-19">
          <mxGeometry relative="1" as="geometry">
            <Array as="points">
              <mxPoint x="892" y="85.5" />
              <mxPoint x="898" y="85.5" />
            </Array>
          </mxGeometry>
        </mxCell>
        <mxCell id="TfIW9gmbFXG3guPpizKq-64" value="" style="rounded=1;dashed=1;endArrow=none;endFill=0;startArrow=none;edgeStyle=elbowEdgeStyle;" edge="1" parent="TfIW9gmbFXG3guPpizKq-1" source="TfIW9gmbFXG3guPpizKq-19" target="TfIW9gmbFXG3guPpizKq-20">
          <mxGeometry relative="1" as="geometry">
            <Array as="points">
              <mxPoint x="972" y="85.5" />
              <mxPoint x="978" y="88.75" />
            </Array>
          </mxGeometry>
        </mxCell>
        <mxCell id="TfIW9gmbFXG3guPpizKq-65" value="" style="rounded=1;dashed=1;endArrow=none;endFill=0;startArrow=none;edgeStyle=elbowEdgeStyle;" edge="1" parent="TfIW9gmbFXG3guPpizKq-1" source="TfIW9gmbFXG3guPpizKq-20" target="TfIW9gmbFXG3guPpizKq-21">
          <mxGeometry relative="1" as="geometry">
            <Array as="points">
              <mxPoint x="1042" y="88.75" />
              <mxPoint x="1048" y="85.5" />
            </Array>
          </mxGeometry>
        </mxCell>
        <mxCell id="TfIW9gmbFXG3guPpizKq-66" value="" style="rounded=1;dashed=1;endArrow=none;endFill=0;startArrow=none;edgeStyle=elbowEdgeStyle;" edge="1" parent="TfIW9gmbFXG3guPpizKq-1" source="TfIW9gmbFXG3guPpizKq-20" target="TfIW9gmbFXG3guPpizKq-22">
          <mxGeometry relative="1" as="geometry">
            <Array as="points">
              <mxPoint x="1042" y="102.25" />
              <mxPoint x="1045" y="124" />
              <mxPoint x="1125" y="124" />
              <mxPoint x="1128" y="102.25" />
            </Array>
          </mxGeometry>
        </mxCell>
        <mxCell id="TfIW9gmbFXG3guPpizKq-67" value="" style="rounded=1;dashed=1;endArrow=none;endFill=0;startArrow=none;edgeStyle=elbowEdgeStyle;" edge="1" parent="TfIW9gmbFXG3guPpizKq-1" source="TfIW9gmbFXG3guPpizKq-21" target="TfIW9gmbFXG3guPpizKq-22">
          <mxGeometry relative="1" as="geometry">
            <Array as="points">
              <mxPoint x="1122" y="85.5" />
              <mxPoint x="1128" y="88.75" />
            </Array>
          </mxGeometry>
        </mxCell>
        <mxCell id="TfIW9gmbFXG3guPpizKq-68" value="" style="rounded=1;dashed=1;endArrow=none;endFill=0;startArrow=none;edgeStyle=elbowEdgeStyle;" edge="1" parent="TfIW9gmbFXG3guPpizKq-1" source="TfIW9gmbFXG3guPpizKq-22" target="TfIW9gmbFXG3guPpizKq-23">
          <mxGeometry relative="1" as="geometry">
            <Array as="points">
              <mxPoint x="1192" y="95.5" />
              <mxPoint x="1198" y="95.5" />
            </Array>
          </mxGeometry>
        </mxCell>
        <mxCell id="TfIW9gmbFXG3guPpizKq-69" value="" style="rounded=1;dashed=1;endArrow=none;endFill=0;startArrow=none;edgeStyle=elbowEdgeStyle;" edge="1" parent="TfIW9gmbFXG3guPpizKq-1" source="TfIW9gmbFXG3guPpizKq-23" target="TfIW9gmbFXG3guPpizKq-24">
          <mxGeometry relative="1" as="geometry">
            <Array as="points">
              <mxPoint x="1252" y="102.25" />
              <mxPoint x="1258" y="119.55" />
            </Array>
          </mxGeometry>
        </mxCell>
        <mxCell id="TfIW9gmbFXG3guPpizKq-70" value="" style="rounded=1;dashed=1;endArrow=none;endFill=0;startArrow=none;edgeStyle=elbowEdgeStyle;" edge="1" parent="TfIW9gmbFXG3guPpizKq-1" source="TfIW9gmbFXG3guPpizKq-23" target="TfIW9gmbFXG3guPpizKq-25">
          <mxGeometry relative="1" as="geometry">
            <Array as="points">
              <mxPoint x="1252" y="88.75" />
              <mxPoint x="1258" y="67" />
            </Array>
          </mxGeometry>
        </mxCell>
        <mxCell id="TfIW9gmbFXG3guPpizKq-71" value="" style="rounded=1;dashed=1;endArrow=none;endFill=0;startArrow=none;edgeStyle=elbowEdgeStyle;" edge="1" parent="TfIW9gmbFXG3guPpizKq-1" source="TfIW9gmbFXG3guPpizKq-24" target="TfIW9gmbFXG3guPpizKq-26">
          <mxGeometry relative="1" as="geometry">
            <Array as="points">
              <mxPoint x="1322" y="117.3" />
              <mxPoint x="1328" y="95.5" />
            </Array>
          </mxGeometry>
        </mxCell>
        <mxCell id="TfIW9gmbFXG3guPpizKq-72" value="" style="rounded=1;dashed=1;endArrow=none;endFill=0;startArrow=none;edgeStyle=elbowEdgeStyle;" edge="1" parent="TfIW9gmbFXG3guPpizKq-1" source="TfIW9gmbFXG3guPpizKq-24" target="TfIW9gmbFXG3guPpizKq-27">
          <mxGeometry relative="1" as="geometry">
            <Array as="points">
              <mxPoint x="1322" y="135.3" />
              <mxPoint x="1328" y="172.5" />
            </Array>
          </mxGeometry>
        </mxCell>
        <mxCell id="TfIW9gmbFXG3guPpizKq-73" value="" style="rounded=1;dashed=1;endArrow=none;endFill=0;startArrow=none;edgeStyle=elbowEdgeStyle;" edge="1" parent="TfIW9gmbFXG3guPpizKq-1" source="TfIW9gmbFXG3guPpizKq-24" target="TfIW9gmbFXG3guPpizKq-30">
          <mxGeometry relative="1" as="geometry">
            <Array as="points">
              <mxPoint x="1324" y="126.3" />
              <mxPoint x="1325" y="134" />
              <mxPoint x="1385" y="134" />
              <mxPoint x="1388" y="83.75" />
            </Array>
          </mxGeometry>
        </mxCell>
        <mxCell id="TfIW9gmbFXG3guPpizKq-74" value="" style="rounded=1;dashed=1;endArrow=none;endFill=0;startArrow=none;edgeStyle=elbowEdgeStyle;" edge="1" parent="TfIW9gmbFXG3guPpizKq-1" source="TfIW9gmbFXG3guPpizKq-25" target="TfIW9gmbFXG3guPpizKq-29">
          <mxGeometry relative="1" as="geometry">
            <Array as="points">
              <mxPoint x="1322" y="67" />
              <mxPoint x="1328" y="38.5" />
            </Array>
          </mxGeometry>
        </mxCell>
        <mxCell id="TfIW9gmbFXG3guPpizKq-75" value="" style="rounded=1;dashed=1;endArrow=none;endFill=0;startArrow=none;edgeStyle=elbowEdgeStyle;" edge="1" parent="TfIW9gmbFXG3guPpizKq-1" source="TfIW9gmbFXG3guPpizKq-27" target="TfIW9gmbFXG3guPpizKq-28">
          <mxGeometry relative="1" as="geometry">
            <Array as="points">
              <mxPoint x="1382" y="172.5" />
              <mxPoint x="1388" y="172.5" />
            </Array>
          </mxGeometry>
        </mxCell>
        <mxCell id="TfIW9gmbFXG3guPpizKq-76" value="" style="rounded=1;dashed=1;endArrow=none;endFill=0;startArrow=none;edgeStyle=elbowEdgeStyle;" edge="1" parent="TfIW9gmbFXG3guPpizKq-1" source="TfIW9gmbFXG3guPpizKq-29" target="TfIW9gmbFXG3guPpizKq-30">
          <mxGeometry relative="1" as="geometry">
            <Array as="points">
              <mxPoint x="1382" y="38.5" />
              <mxPoint x="1388" y="70.25" />
            </Array>
          </mxGeometry>
        </mxCell>
        <mxCell id="TfIW9gmbFXG3guPpizKq-77" value="" style="rounded=1;dashed=1;endArrow=none;endFill=0;startArrow=none;edgeStyle=elbowEdgeStyle;" edge="1" parent="TfIW9gmbFXG3guPpizKq-1" source="TfIW9gmbFXG3guPpizKq-31" target="TfIW9gmbFXG3guPpizKq-32">
          <mxGeometry relative="1" as="geometry">
            <Array as="points">
              <mxPoint x="82" y="291.25" />
              <mxPoint x="88" y="269.5" />
            </Array>
          </mxGeometry>
        </mxCell>
        <mxCell id="TfIW9gmbFXG3guPpizKq-78" value="" style="rounded=1;dashed=1;endArrow=none;endFill=0;startArrow=none;edgeStyle=elbowEdgeStyle;" edge="1" parent="TfIW9gmbFXG3guPpizKq-1" source="TfIW9gmbFXG3guPpizKq-31" target="TfIW9gmbFXG3guPpizKq-33">
          <mxGeometry relative="1" as="geometry">
            <Array as="points">
              <mxPoint x="82" y="304.75" />
              <mxPoint x="88" y="326.5" />
            </Array>
          </mxGeometry>
        </mxCell>
        <mxCell id="TfIW9gmbFXG3guPpizKq-79" value="" style="rounded=1;dashed=1;endArrow=none;endFill=0;startArrow=none;edgeStyle=elbowEdgeStyle;" edge="1" parent="TfIW9gmbFXG3guPpizKq-1" source="TfIW9gmbFXG3guPpizKq-33" target="TfIW9gmbFXG3guPpizKq-34">
          <mxGeometry relative="1" as="geometry">
            <Array as="points">
              <mxPoint x="172" y="319.75" />
              <mxPoint x="178" y="269.5" />
            </Array>
          </mxGeometry>
        </mxCell>
        <mxCell id="TfIW9gmbFXG3guPpizKq-80" value="" style="rounded=1;dashed=1;endArrow=none;endFill=0;startArrow=none;edgeStyle=elbowEdgeStyle;" edge="1" parent="TfIW9gmbFXG3guPpizKq-1" source="TfIW9gmbFXG3guPpizKq-33" target="TfIW9gmbFXG3guPpizKq-35">
          <mxGeometry relative="1" as="geometry">
            <Array as="points">
              <mxPoint x="172" y="333.25" />
              <mxPoint x="178" y="326.5" />
            </Array>
          </mxGeometry>
        </mxCell>
        <mxCell id="TfIW9gmbFXG3guPpizKq-81" value="" style="rounded=1;dashed=1;endArrow=none;endFill=0;startArrow=none;edgeStyle=elbowEdgeStyle;" edge="1" parent="TfIW9gmbFXG3guPpizKq-1" source="TfIW9gmbFXG3guPpizKq-35" target="TfIW9gmbFXG3guPpizKq-36">
          <mxGeometry relative="1" as="geometry">
            <Array as="points">
              <mxPoint x="292" y="319.75" />
              <mxPoint x="298" y="269.5" />
            </Array>
          </mxGeometry>
        </mxCell>
        <mxCell id="TfIW9gmbFXG3guPpizKq-82" value="" style="rounded=1;dashed=1;endArrow=none;endFill=0;startArrow=none;edgeStyle=elbowEdgeStyle;" edge="1" parent="TfIW9gmbFXG3guPpizKq-1" source="TfIW9gmbFXG3guPpizKq-35" target="TfIW9gmbFXG3guPpizKq-37">
          <mxGeometry relative="1" as="geometry">
            <Array as="points">
              <mxPoint x="292" y="333.25" />
              <mxPoint x="298" y="326.5" />
            </Array>
          </mxGeometry>
        </mxCell>
        <mxCell id="TfIW9gmbFXG3guPpizKq-83" value="" style="rounded=1;dashed=1;endArrow=none;endFill=0;startArrow=none;edgeStyle=elbowEdgeStyle;" edge="1" parent="TfIW9gmbFXG3guPpizKq-1" source="TfIW9gmbFXG3guPpizKq-36" target="TfIW9gmbFXG3guPpizKq-38">
          <mxGeometry relative="1" as="geometry">
            <Array as="points">
              <mxPoint x="412" y="269.5" />
              <mxPoint x="418" y="291.25" />
            </Array>
          </mxGeometry>
        </mxCell>
        <mxCell id="TfIW9gmbFXG3guPpizKq-84" value="" style="rounded=1;dashed=1;endArrow=none;endFill=0;startArrow=none;edgeStyle=elbowEdgeStyle;" edge="1" parent="TfIW9gmbFXG3guPpizKq-1" source="TfIW9gmbFXG3guPpizKq-37" target="TfIW9gmbFXG3guPpizKq-38">
          <mxGeometry relative="1" as="geometry">
            <Array as="points">
              <mxPoint x="412" y="326.5" />
              <mxPoint x="418" y="304.75" />
            </Array>
          </mxGeometry>
        </mxCell>
      </root>
    </mxGraphModel>
  </diagram>
</mxfile>
